<?xml version="1.0" encoding="UTF-8"?>
<svg version="1.1" viewBox="0 0 2048 2048" width="1280" height="1280" xmlns="http://www.w3.org/2000/svg">
<path transform="translate(0)" d="m0 0h2048v2048h-2048z" fill="#010101"/>
<path transform="translate(1303,346)" d="m0 0 16 1 14 8 4 5 8 19v8l-3 12-5 9-9 12-9 9-7 8-10 11-7 8-13 13-9 11-12 13-12 12-9 11-11 12-13 13-9 11-12 13-16 16-9 11-9 9-1 2h-2v2l-8 7-5 5-5 6h-2l-2 4-7 7-9 11-39 39-7 10-12 12-6 9-14 14-6 9-15 15-9 12h-2l-2 4-9 9 10-2 55-16 38-11 20-6 40-13 30-10 30-9 26-7 37-11 16-5 26-6 33-8 19-4 24-7 30-8 27-7 20-5 25-5 23-4 14-2h20l12 3 9 6 8 9 4 9 1 5v15l-2 10-5 12-9 12-7 7-13 10-19 14-17 12-18 13-20 14-13 9-17 12-32 24-9 9-11 9-10 9-33 33-9 12-11 11 5 1 16 1 11 2 20 1 10 2 22 1 4 1 31 2 4 1h38l11-1 28-1h32l27 1 35 3 18 4 11 5 9 6 5 6 7 15 1 6-1 12-5 12-6 10-8 11-9 12-8 9-9 11-17 16-13 11-10 10-14 11-10 9-11 9-7 6-11 9-10 8-7 6-8 6-7 6-18 14-11 9-9 7-11 8-6 5-14 11-8 7-8 8-11 8-12 12-12 9-11 11-11 8-9 9-11 8-8 8-6 4-8 8-11 8-8 8-10 7-7 7-10 7-9 8-8 6-7 6-9 7-6 5-11 9-8 6-22 16-7 6-8 6-9 7-11 9-9 7-8 6-9 7-11 9-16 12-8 5-6-1v-2l-5-1-3-3v-11l7-8 8-6 11-9 9-7 12-9 11-9 13-10 9-7 14-11 8-7 13-10 8-7 9-7 14-11 44-36 9-8 8-6 10-9 8-6 10-9 9-7 7-7 12-9 9-9 8-6 13-12 9-7 9-9 13-10 100-100 9-11 7-7 7-8 17-17 8-10 8-8 11-14 8-9 9-13 7-12-8-1-35-6-37-4-18-2-20-1-9-1h-17l-14 1-52 1-43 2h-61l-15-2-10-3-11-7-9-10-3-8-1-5v-7l3-11 7-9 9-10 8-7 14-13 11-9 16-16h2v-2l8-7 12-11 12-12 8-7 14-14 14-11 9-9 8-7 14-12 19-19 11-9 12-11 8-8 9-7 1-2-33 4-39 6-29 6-59 14-28 6-24 5-33 9-46 14-40 14-83 36-36 15-25 9-17 6-9 4-6 5-10 3h-9l-12-4-6-5-7 8-11 11-6 9-12 12-7 10-11 11-4 6-11 12-9 11-9 10-7 9-9 9-6 9-11 11-6 9-9 9-7 10-5 5h-2l-2 4-7 9-7 7-7 10-8 8-6 9-7 7-6 9-8 8-7 10-7 8-5 7-5 5-6 8-7 8-4 6-7 8-4 6-7 8-4 5-6 4-4 10-6 7-4 6-5 5-6 8-4 5-6 8-8 11-6 8-7 9-6 8-10 13-3 4 5-1 25-11 39-17 47-20 34-14 28-11 30-14 21-10 19-10 18-8 17-7 15-7 40-17 29-12 15-6v-15l-2-21-1-28-1-13-2-65-1-13-1-30-2-13v-19l4-13 3-6 9-9 9-4 5-1h7l10 3 9 6 6 8 3 8 2 18 1 5v17l-2 20-1 20-2 17-1 18-1 4-2 28-1 6-2 34-2 23 36-12 4-1 10 5 4 5 1 10-3 7-4 4-28 13-18 8h-2l1 37 2 27 1 37 1 8 2 50 1 9 1 22 2 15 2 21 3 34 1 11v60l-2 9-1 15-4 16-7 9-6 4-5 2h-13l-9-5-7-7-3-7v-59l2-10 1-26 2-20v-93l-2-19-1-40-2-20-1-44-2-9v-5l-28 11-28 12-46 20-25 11-21 8-29 13-24 12-21 12-25 14-26 15-17 10-25 15-29 17-20 12-5 1h-13l-9-3-6-4-6-7-4-9v-6l-5 4-5 8-8 11-3 3-3 6-7 9-10 14-8 11-7 11-8 11-6 8-10 15-12 17-7 10-5 8-3 4-3 5-8 11-4 7-10 15-7 10-6 9-15 24-7 11-6 9-10 16-7 11-9 14-12 20-10 16-21 35-13 22-9 15-28 49-11 19-6 11-9 16-10 17-5 10-6 10-14 25-8 14-10 18-9 16-8 13-7 14-7 11-6 12-7 7-9 1-8-4-2-10 8-16 12-21 18-32 6-10 6-11 8-14 6-11 15-27 12-21 7-12 6-11 10-18 8-14 10-17 6-11 20-34 17-28 10-17 10-16 4-7 15-24 6-10 12-19 7-11 10-15 13-21 11-16 7-10 4-7 10-15 13-19 7-10 4-7 8-11 22-32 8-11 13-19 6-8 7-10 11-15 4-6 4-5 3-3 2-4 6-9 10-13 4-5 2-5 5-4 6-9 9-12 8-11 7-10h2l2-4 8-11 7-9 4-5 6-8 4-5 2-7 5-5 6-8 10-13 7-9 7-8 8-9h2v-2h2l2-4 6-8 7-8 6-8 6-7 7-9 7-8 4-6 9-10 7-9 8-9 9-11 6-7 9-11 5-6 7-8 9-11 5-6 5-5 6-7 8-10 14-16 3-4h2l2-4 7-9 8-8 8-11 11-11 8-11 11-11 6-9 12-12 10-13 11-11 9-17 8-10 9-7 9-6 7-7 7-10 16-16 8-11 14-14 9-12 11-11 8-11h2l2-4 8-8 6-8 12-13 6-8 8-11 14-18 6-8 8-11 9-12 8-11 13-18 4-5 12-17 9-12 12-17 21-30 11-15 7-10 13-18 9-13 4-6h2v-2l-39 12-26 9-24 10-31 14-36 15-27 11-35 12-36 14-45 17-38 14-36 12-27 10-20 7-29 12-29 11-35 13-27 8-28 6-26 3h-42l-23-3-19-5-19-8-22-13-11-9-11-14-10-19-12-36-3-14-2-10-1-15-5-15 2-11 5-10 7-7 7-4 8-2h7l11 3 8 6 6 7 8 17 5 16 5 17 8 21 7 11 9 9 21 11 14 5 15 3 17 2 5 1h31l23-3 31-6 48-12 21-5 15-5 13-4 28-10 20-7 23-10 20-7 84-32 24-10 21-9 11-5 23-9 11-5 32-14 23-10 19-10 21-10 16-8 25-10 9-3 8-2 20-6 28-8z" fill="#FCFCFC"/>
</svg>
