<?xml version="1.0" encoding="UTF-8"?>
<svg version="1.1" viewBox="0 0 2000 2000" width="1280" height="1280" xmlns="http://www.w3.org/2000/svg">
<path transform="translate(1264,340)" d="m0 0h23l12 5 4 5 6 12 3 9-1 10-3 12-8 12-11 13-8 7-9 11-7 7-7 8-12 12-8 10-9 10-11 11-7 8-11 11-8 10-5 5-9 10-8 10-8 7-10 10-7 9-15 16-20 20-5 6-5 4-6 8-8 9-6 5-7 8-7 7-5 4-4 6-15 16-8 9-7 10h-2l-2 4-7 7-6 8-14 15-7 8-8 10-5 4-1 3 13-4 14-3 18-6 16-4 14-4 4-2 12-2 19-7 10-3 17-5 9-3 14-4 17-7 9-2 12-4 10-3 18-5 13-5 16-3 15-5 19-5 10-3 16-3 20-6 9-3 18-3 24-6 17-4 14-6 28-6 4-2 30-5 5-3 12-2 3-2 28-2 15-2 14 2 9 2 7 6 7 11 4 8 1 5v9l-2 9-3 8-5 10-7 9-11 10-11 9-11 7-11 8-14 10-13 9-11 8-12 8-13 10-12 8-13 10-17 12-20 18-9 7-4 5-4 4-8 7-8 9-5 5-5 4-10 14-9 9-1 2 2 1h9l9 1 2 1v2h23l5 2 1 1 9 1 21 1 3 1 19 1 163 1 17 1 4 2 13 2 13 4 11 9 6 9 5 10v16l-7 15-10 16-9 11-6 8-12 13-15 15-8 7-8 8-10 8-7 6h-2l-2 4h-2v2l-11 8-10 9-15 12-14 12-11 8-11 9-14 11-11 9-12 10-8 6-13 11-9 7-10 9-16 13-12 11-10 8-13 12-8 7-12 9-6 6h-2v2l-12 9h-2v2h-2l-2 4-12 10-4 3h-2l-2 5-10 7-12 9-8 7-10 8-12 9-8 7-12 10-10 7-8 6-13 10-7 7-9 6-12 9-3 5-8 4-9 7-13 10-18 13-12 10-5 3-4-1-6-5-2-4v-6l4-6 10-9 17-13 15-12 16-12 13-11 9-6 9-8 13-10 10-9 13-10 10-9 12-9 11-9 10-8 14-11 11-10 9-7 15-13 12-10 8-7 16-13 7-8 9-6 10-10 11-8 12-11 11-8 40-40 1-2h2l2-4 8-8h2v-2l5-4 1-2h2l2-4 12-12h2l2-4 12-12h2l2-4 13-14 6-7h2l2-4 17-17 9-11 6-7 5-5 7-9 8-11 8-12 5-6 1-3-5-1-10-3-19-3-25-2-6-2-24-2-9-1-26-1h-41l-40 1-22 1-49 1h-21l-22-1-13-3-10-8-7-6-5-9-1-4v-10l4-10 6-8 22-22 11-9 5-6 8-6 3-1v-2l12-12 10-8 15-16 8-7 6-6h2l2-4 8-7 8-6 13-12 13-11 8-7 21-21 11-9 5-4 6-8 11-9 4-5h-10l-15 3-25 2-21 3-5 2-17 2-6 2-2 1-10 1-1 2-11 2-2 2-17 2-9 3-7 1-3 2-20 2-3 2h-5l-4 1-6 2-11 3-3 2-7 1h-3l-16 4-6 3h-5l-3 1-4 1-9 3-6 3-5 2-2 1-2-1v2h-8l-5 4h-7l-5 4h-8l-19 10-11 4-24 10-15 7-16 7-14 5-14 6-20 9-39 13-7 7-11 3h-8l-12-4-6-3h-2l-7 8-9 8-6 10-12 12-8 11-12 13-14 16-9 11-7 7-7 10-9 9-9 12-9 10-7 8-11 13-7 8-9 11-13 15-13 16-9 11h-2l-2 5-11 12-5 7h-2l-2 5-9 10-7 9-6 8-10 13-12 14-7 10-6 3-4 9-9 12-2 3h-2l-2 4-10 13-15 20-8 11-10 13-9 13-1 4 6-2 6-4 21-8 19-8 6-4 9-2 11-6 10-3 16-8 13-5 8-4 9-2 16-8 21-8 19-8 20-9 22-12 27-13 12-5 20-8 8-5 10-3 11-5 12-4 10-6 12-4 11-5 8-2-1-21-2-4-1-30-1-57-2-44-1-36-3-3v-16l2-2 2-11 4-8 9-9 7-3h16l12 4 7 10 3 5 2 19 1 4v24l-2 29-1 30-1 9-2 3-2 30-1 6-2 55 24-7 13-6 5 1 6 5 3 6v12l-4 5-14 7-9 4-14 7-10 3 1 64 1 33 2 33 1 24 2 12 2 41 4 47 2 10 1 21v25l-1 15-2 7-2 17-4 16-7 9-10 4-6 1-14-6-6-7-3-10v-39l1-19 1-3 1-23v-151l-1-27-1-7-1-18-1-35-3-8v-3l-10 2-16 8-9 3-16 7-11 4-14 7-41 17-19 8-21 9-18 8-7 5-4 1-16 8-21 12-12 7-7 3-12 8-10 5-11 7-6 3-13 8-8 5-7 3-8 7-9 4-16 9-14 7-4 1h-15l-10-4-9-9-1-3v-10l-5 3-7 7-7 11-3 4-3 5-11 13-7 12-9 11-5 8-12 17-10 14-7 10-10 14-7 11-7 10-7 12-5 6-6 11-11 15-10 16-10 15-18 28-12 19-8 12-4 8-7 11-8 11-5 10-9 15-8 13-7 12-3 6-10 17-4 5-6 11-9 16-7 11-5 10-21 36-6 12-6 10-6 12-10 16-10 17-5 10-7 11-7 14-12 22-12 21-8 17-11 9-4 1-8-4-3-3v-8l7-14 9-16 6-11 6-9 9-17 5-9 6-10 10-18 12-22 8-14 11-19 13-23 10-18 12-22 11-18 6-11 15-25 11-19 7-10 10-18 12-20 12-19 7-11 11-17 7-13 3-1 2-4 8-14 9-13 10-17 9-13 8-11 12-18 12-19 12-18 8-11 11-16 20-28 9-12 11-16 11-14 13-18 12-16 10-13 8-11 12-17 10-13 14-19 13-17 13-20 8-10 10-12 6-8 12-13 9-10 9-11 11-14 8-10 12-14 11-14 9-10 8-10 8-9 7-9 12-14 9-11 7-9h2l2-4 11-14 5-5 14-16 10-13 5-5 7-8 8-11 6-4 6-9 8-9 5-4 7-10 5-6 7-6 7-11 14-14 6-11 7-11 9-8 10-7 14-15 8-10 10-10 7-10 8-9 6-4 6-9 14-14 7-10 13-13 6-9 11-11 11-15 6-8 4-6 11-14 8-12 10-13 9-13 6-8 8-10 6-8 3-6 5-5 7-9 8-12 6-7 8-12 7-10 9-12 18-27 12-17 7-10-11 3-10 1-5 2-6 2-3 3h-10l-12 5-5 3h-7l-17 10-1 1-8 1-8 5-12 4-8 5-16 6-27 11-13 6-10 3-16 6-9 2-16 8-11 3-12 5-19 7-14 6-19 7-10 3-19 8-5 2-9 2-11 4-4 2-9 2-9 3-4 2-6 1-5 1-9 4-10 6-10 2-14 7-6 1-12 5-14 6-27 9-17 6-8 3-12 2-8 2-10 1-4 2-30 2h-33l-16-1-8-2-15-4-11-3-8-5-17-9-12-9-9-9-7-11-9-14-7-22-3-6-3-14-1-13-3-5-1-15-3-5-1-17 3-8 6-8 9-7 8-2h13l6 3 9 6 7 13 6 9 3 14 5 16 2 10 7 14 8 13 10 9 16 9 16 5 13 3 11 1h55l15-2 13-2 5-2 19-3 15-4 14-5 26-6 9-3 16-4 15-7 12-3 15-6 16-5 7-5 14-4 15-6 14-5 13-6 16-6 18-6 14-7 9-2 12-6 9-3 7-3 11-6 17-6 3-2 8-2 13-6 11-4 16-8 13-5 12-5 6-2 4-5 10-3 16-8 9-4 5-5 10-3 9-4 3-2 9-2 24-9 23-6 10-3z" fill="#FEFEFE"/>
</svg>
